<svg width="40" height="40" viewBox="0 0 40 40" fill="none" xmlns="http://www.w3.org/2000/svg">
<path d="M20 20C26.3125 20 31.4286 15.5234 31.4286 10C31.4286 4.47656 26.3125 0 20 0C13.6875 0 8.57143 4.47656 8.57143 10C8.57143 15.5234 13.6875 20 20 20ZM11.4286 24.3125C4.82143 26.0078 0 31.3516 0 37.6797C0 38.9609 1.1875 40 2.65179 40H37.3482C38.8125 40 40 38.9609 40 37.6797C40 31.3516 35.1786 26.0078 28.5714 24.3125V28.2812C31.0357 28.8359 32.8571 30.7969 32.8571 33.125V36.25C32.8571 36.9375 32.2143 37.5 31.4286 37.5H30C29.2143 37.5 28.5714 36.9375 28.5714 36.25C28.5714 35.5625 29.2143 35 30 35V33.125C30 31.7422 28.7232 30.625 27.1429 30.625C25.5625 30.625 24.2857 31.7422 24.2857 33.125V35C25.0714 35 25.7143 35.5625 25.7143 36.25C25.7143 36.9375 25.0714 37.5 24.2857 37.5H22.8571C22.0714 37.5 21.4286 36.9375 21.4286 36.25V33.125C21.4286 30.7969 23.25 28.8359 25.7143 28.2812V23.8203C25.1786 23.7734 24.6339 23.75 24.0804 23.75H15.9196C15.3661 23.75 14.8214 23.7734 14.2857 23.8203V28.9297C16.3482 29.4687 17.8571 31.1406 17.8571 33.125C17.8571 35.5391 15.6161 37.5 12.8571 37.5C10.0982 37.5 7.85714 35.5391 7.85714 33.125C7.85714 31.1406 9.36607 29.4687 11.4286 28.9297V24.3125ZM12.8571 35C14.0446 35 15 34.1641 15 33.125C15 32.0859 14.0446 31.25 12.8571 31.25C11.6696 31.25 10.7143 32.0859 10.7143 33.125C10.7143 34.1641 11.6696 35 12.8571 35Z" fill="#AE376D"/>
</svg>
