<svg width="30" height="30" viewBox="0 0 30 30" fill="none" xmlns="http://www.w3.org/2000/svg">
<path d="M29.1667 0L28.9 0.05L20 3.5L10 0L0.6 3.16667C0.25 3.28333 0 3.58333 0 3.96667V29.1667C0 29.6333 0.366667 30 0.833333 30L1.1 29.95L10 26.5L20 30L29.4 26.8333C29.75 26.7167 30 26.4167 30 26.0333V0.833333C30 0.366667 29.6333 0 29.1667 0ZM8.33333 23.5833L3.33333 25.5167V5.76667L8.33333 4.08333V23.5833ZM18.3333 25.8833L11.6667 23.55V4.11667L18.3333 6.45V25.8833ZM26.6667 24.2333L21.6667 25.9167V6.43333L26.6667 4.5V24.2333Z" fill="#39C3F6"/>
</svg>
