<svg width="20" height="20" viewBox="0 0 20 20" fill="none" xmlns="http://www.w3.org/2000/svg">
<path d="M16.6667 10C16.4444 10 16.2467 9.92 16.0733 9.76C15.8994 9.60056 15.7986 9.40278 15.7708 9.16667C15.5903 7.875 15.0453 6.77417 14.1358 5.86417C13.2258 4.95472 12.125 4.40972 10.8333 4.22917C10.5972 4.20139 10.3994 4.10417 10.24 3.9375C10.08 3.77083 10 3.56944 10 3.33333C10 3.09722 10.0833 2.89917 10.25 2.73917C10.4167 2.57972 10.6111 2.51389 10.8333 2.54167C12.5833 2.73611 14.0764 3.45139 15.3125 4.6875C16.5486 5.92361 17.2639 7.41667 17.4583 9.16667C17.4861 9.38889 17.42 9.58333 17.26 9.75C17.1006 9.91667 16.9028 10 16.6667 10ZM13.1875 10C13.0069 10 12.8472 9.9375 12.7083 9.8125C12.5694 9.6875 12.4653 9.52083 12.3958 9.3125C12.2847 8.90972 12.0731 8.55194 11.7608 8.23917C11.4481 7.92694 11.0903 7.71528 10.6875 7.60417C10.4792 7.53472 10.3125 7.43056 10.1875 7.29167C10.0625 7.15278 10 6.98611 10 6.79167C10 6.51389 10.0972 6.28806 10.2917 6.11417C10.4861 5.94083 10.7014 5.88194 10.9375 5.9375C11.7153 6.11806 12.3856 6.48944 12.9483 7.05167C13.5106 7.61444 13.8819 8.28472 14.0625 9.0625C14.1181 9.29861 14.0556 9.51389 13.875 9.70833C13.6944 9.90278 13.4653 10 13.1875 10ZM16.625 17.5C14.8333 17.5 13.0869 17.1006 11.3858 16.3017C9.68417 15.5033 8.17722 14.4478 6.865 13.135C5.55222 11.8228 4.49667 10.3158 3.69833 8.61417C2.89944 6.91306 2.5 5.16667 2.5 3.375C2.5 3.125 2.58333 2.91667 2.75 2.75C2.91667 2.58333 3.125 2.5 3.375 2.5H6.75C6.94444 2.5 7.11806 2.5625 7.27083 2.6875C7.42361 2.8125 7.51389 2.97222 7.54167 3.16667L8.08333 6.08333C8.11111 6.27778 8.10778 6.45472 8.07333 6.61417C8.03833 6.77417 7.95833 6.91667 7.83333 7.04167L5.83333 9.08333C6.41667 10.0833 7.14583 11.0208 8.02083 11.8958C8.89583 12.7708 9.86111 13.5278 10.9167 14.1667L12.875 12.2083C13 12.0833 13.1633 11.9894 13.365 11.9267C13.5661 11.8644 13.7639 11.8472 13.9583 11.875L16.8333 12.4583C17.0278 12.5 17.1875 12.5936 17.3125 12.7392C17.4375 12.8853 17.5 13.0556 17.5 13.25V16.625C17.5 16.875 17.4167 17.0833 17.25 17.25C17.0833 17.4167 16.875 17.5 16.625 17.5Z" fill="white"/>
</svg>
