<svg width="32" height="34" viewBox="0 0 32 34" fill="none" xmlns="http://www.w3.org/2000/svg">
<path d="M18.6667 0.333328V13.6667H32C32 6.29999 26.0333 0.333328 18.6667 0.333328ZM22 10.3333V4.23333C24.8333 5.23333 27.0833 7.48333 28.1 10.3333H22ZM7.73333 15.3333L6.15 12H0.333332V15.3333H4.03333C4.03333 15.3333 7.18333 22.1167 7.56667 22.7C5.73333 23.6833 4.5 25.6167 4.5 27.8333C4.5 31.05 7.11667 33.6667 10.3333 33.6667C13.2667 33.6667 15.7 31.5 16.1 28.6667H19.5667C19.9667 31.5 22.4 33.6667 25.3333 33.6667C28.55 33.6667 31.1667 31.05 31.1667 27.8333C31.1667 26.1 30.4 24.55 29.2 23.4833C31.0156 21.1547 32.0011 18.2861 32 15.3333H7.73333ZM10.3333 30.3333C8.95 30.3333 7.83333 29.2167 7.83333 27.8333C7.83333 26.45 8.95 25.3333 10.3333 25.3333C11.7167 25.3333 12.8333 26.45 12.8333 27.8333C12.8333 29.2167 11.7167 30.3333 10.3333 30.3333ZM25.3333 30.3333C23.95 30.3333 22.8333 29.2167 22.8333 27.8333C22.8333 26.45 23.95 25.3333 25.3333 25.3333C26.7167 25.3333 27.8333 26.45 27.8333 27.8333C27.8333 29.2167 26.7167 30.3333 25.3333 30.3333ZM26.5667 21.4333L26.0833 22.05C24.8624 21.8936 23.6233 22.1269 22.5428 22.7165C21.4624 23.3061 20.5958 24.222 20.0667 25.3333H15.6C14.7667 23.6 13.1 22.3333 11.1333 22.05L10.4 20.9333C10.2333 20.65 9.83333 19.7833 9.28333 18.6667H28.1C27.75 19.65 27.2333 20.5833 26.5667 21.4333Z" fill="#39C3F6"/>
</svg>
